# xmcd
#
# Track frame offsets: 
#        150
#        23544
#        39599
#        55930
#        76034
#        95173
#        114466
#        132728
#        157365
#        175402
#        192652
#        225128
#
# Disc length: 3575 seconds
#
# Revision: 1
# Processed by: cddbd v1.5.2PL0 Copyright (c) Steve Scherf et al.
# Submitted via: ExactAudioCopyFreeDBPlugin 1.0
#
DISCID=9e0df50c
DTITLE=Ameeba - Montako Puuta On Mets‰
DYEAR=2012
DGENRE=Hip-Hop
TTITLE0=Yksinkertaista (feat. Pijall)
TTITLE1=L‰pi
TTITLE2=T 
TTITLE3=Tiedosta (feat. Mattip)
TTITLE4=P‰‰
TTITLE5=Toisinaan
TTITLE6=Mik‰ Vikana
TTITLE7=Toivo
TTITLE8=Kun Unelmat Kaatuu
TTITLE9=Sumua
TTITLE10=Illo (feat. Mattip and Pijall)
TTITLE11=Maailmaa
EXTD=
EXTT0=
EXTT1=
EXTT2=
EXTT3=
EXTT4=
EXTT5=
EXTT6=
EXTT7=
EXTT8=
EXTT9=
EXTT10=
EXTT11=
PLAYORDER=
